<mxfile host="drawio-plugin" modified="2024-01-16T09:14:40.025Z" agent="5.0 (Windows NT 6.2; Win64; x64) AppleWebKit/537.36 (KHTML, like Gecko) Chrome/104.0.5112.102 Safari/537.36" etag="LwV5WqVgiEhL93rnGHI6" version="20.5.3" type="embed"><diagram id="QKplTipjdLD3MDjaPTTV" name="Page-1"><mxGraphModel dx="838" dy="704" grid="0" gridSize="10" guides="1" tooltips="1" connect="1" arrows="1" fold="1" page="0" pageScale="1" pageWidth="850" pageHeight="1100" math="0" shadow="0"><root><mxCell id="0"/><mxCell id="1" parent="0"/><mxCell id="7" value="Customer" style="swimlane;fontStyle=1;align=center;verticalAlign=top;childLayout=stackLayout;horizontal=1;startSize=26;horizontalStack=0;resizeParent=1;resizeParentMax=0;resizeLast=0;collapsible=1;marginBottom=0;rounded=1;fontColor=#F0F0F0;" parent="1" vertex="1"><mxGeometry y="40" width="110" height="52" as="geometry"/></mxCell><mxCell id="8" value="- name: String" style="text;strokeColor=none;fillColor=none;align=left;verticalAlign=top;spacingLeft=4;spacingRight=4;overflow=hidden;rotatable=0;points=[[0,0.5],[1,0.5]];portConstraint=eastwest;rounded=1;fontColor=#F0F0F0;" parent="7" vertex="1"><mxGeometry y="26" width="110" height="26" as="geometry"/></mxCell><mxCell id="13" value="Order" style="swimlane;fontStyle=1;align=center;verticalAlign=top;childLayout=stackLayout;horizontal=1;startSize=26;horizontalStack=0;resizeParent=1;resizeParentMax=0;resizeLast=0;collapsible=1;marginBottom=0;rounded=1;" parent="1" vertex="1"><mxGeometry x="210" y="40" width="125" height="112" as="geometry"/></mxCell><mxCell id="14" value="+ data: data" style="text;strokeColor=none;fillColor=none;align=left;verticalAlign=top;spacingLeft=4;spacingRight=4;overflow=hidden;rotatable=0;points=[[0,0.5],[1,0.5]];portConstraint=eastwest;rounded=1;" parent="13" vertex="1"><mxGeometry y="26" width="125" height="26" as="geometry"/></mxCell><mxCell id="17" value="+ status: status" style="text;strokeColor=none;fillColor=none;align=left;verticalAlign=top;spacingLeft=4;spacingRight=4;overflow=hidden;rotatable=0;points=[[0,0.5],[1,0.5]];portConstraint=eastwest;rounded=1;" parent="13" vertex="1"><mxGeometry y="52" width="125" height="26" as="geometry"/></mxCell><mxCell id="15" value="" style="line;strokeWidth=1;fillColor=none;align=left;verticalAlign=middle;spacingTop=-1;spacingLeft=3;spacingRight=3;rotatable=0;labelPosition=right;points=[];portConstraint=eastwest;rounded=1;" parent="13" vertex="1"><mxGeometry y="78" width="125" height="8" as="geometry"/></mxCell><mxCell id="16" value="+ method(type): type" style="text;strokeColor=none;fillColor=none;align=left;verticalAlign=top;spacingLeft=4;spacingRight=4;overflow=hidden;rotatable=0;points=[[0,0.5],[1,0.5]];portConstraint=eastwest;rounded=1;" parent="13" vertex="1"><mxGeometry y="86" width="125" height="26" as="geometry"/></mxCell><mxCell id="18" value="OrderDetail" style="swimlane;fontStyle=1;align=center;verticalAlign=top;childLayout=stackLayout;horizontal=1;startSize=26;horizontalStack=0;resizeParent=1;resizeParentMax=0;resizeLast=0;collapsible=1;marginBottom=0;rounded=1;" parent="1" vertex="1"><mxGeometry x="450" y="40" width="124" height="86" as="geometry"/></mxCell><mxCell id="19" value="+ field: type" style="text;strokeColor=none;fillColor=none;align=left;verticalAlign=top;spacingLeft=4;spacingRight=4;overflow=hidden;rotatable=0;points=[[0,0.5],[1,0.5]];portConstraint=eastwest;rounded=1;" parent="18" vertex="1"><mxGeometry y="26" width="124" height="26" as="geometry"/></mxCell><mxCell id="20" value="" style="line;strokeWidth=1;fillColor=none;align=left;verticalAlign=middle;spacingTop=-1;spacingLeft=3;spacingRight=3;rotatable=0;labelPosition=right;points=[];portConstraint=eastwest;rounded=1;" parent="18" vertex="1"><mxGeometry y="52" width="124" height="8" as="geometry"/></mxCell><mxCell id="21" value="+ method(type): type" style="text;strokeColor=none;fillColor=none;align=left;verticalAlign=top;spacingLeft=4;spacingRight=4;overflow=hidden;rotatable=0;points=[[0,0.5],[1,0.5]];portConstraint=eastwest;rounded=1;" parent="18" vertex="1"><mxGeometry y="60" width="124" height="26" as="geometry"/></mxCell><mxCell id="22" value="Item" style="swimlane;fontStyle=1;align=center;verticalAlign=top;childLayout=stackLayout;horizontal=1;startSize=26;horizontalStack=0;resizeParent=1;resizeParentMax=0;resizeLast=0;collapsible=1;marginBottom=0;rounded=1;" parent="1" vertex="1"><mxGeometry x="705" y="35" width="125" height="86" as="geometry"/></mxCell><mxCell id="23" value="+ field: type" style="text;align=left;verticalAlign=top;spacingLeft=4;spacingRight=4;overflow=hidden;rotatable=0;points=[[0,0.5],[1,0.5]];portConstraint=eastwest;rounded=1;" parent="22" vertex="1"><mxGeometry y="26" width="125" height="26" as="geometry"/></mxCell><mxCell id="24" value="" style="line;strokeWidth=1;align=left;verticalAlign=middle;spacingTop=-1;spacingLeft=3;spacingRight=3;rotatable=0;labelPosition=right;points=[];portConstraint=eastwest;rounded=1;" parent="22" vertex="1"><mxGeometry y="52" width="125" height="8" as="geometry"/></mxCell><mxCell id="25" value="+ method(type): type" style="text;align=left;verticalAlign=top;spacingLeft=4;spacingRight=4;overflow=hidden;rotatable=0;points=[[0,0.5],[1,0.5]];portConstraint=eastwest;rounded=1;" parent="22" vertex="1"><mxGeometry y="60" width="125" height="26" as="geometry"/></mxCell><mxCell id="26" value="Payment" style="swimlane;fontStyle=0;childLayout=stackLayout;horizontal=1;startSize=26;fillColor=none;horizontalStack=0;resizeParent=1;resizeParentMax=0;resizeLast=0;collapsible=1;marginBottom=0;rounded=1;" vertex="1" parent="1"><mxGeometry x="200" y="280" width="140" height="52" as="geometry"/></mxCell><mxCell id="27" value="+ amount: float" style="text;strokeColor=none;fillColor=none;align=left;verticalAlign=top;spacingLeft=4;spacingRight=4;overflow=hidden;rotatable=0;points=[[0,0.5],[1,0.5]];portConstraint=eastwest;rounded=1;" vertex="1" parent="26"><mxGeometry y="26" width="140" height="26" as="geometry"/></mxCell><mxCell id="31" value="&lt;p style=&quot;margin:0px;margin-top:4px;text-align:center;&quot;&gt;&lt;b&gt;Check&lt;/b&gt;&lt;/p&gt;&lt;hr size=&quot;1&quot;&gt;&lt;p style=&quot;margin:0px;margin-left:4px;&quot;&gt;+ field: Type&lt;/p&gt;&lt;hr size=&quot;1&quot;&gt;&lt;p style=&quot;margin:0px;margin-left:4px;&quot;&gt;+ method(): Type&lt;/p&gt;" style="verticalAlign=top;align=left;overflow=fill;fontSize=12;fontFamily=Helvetica;html=1;rounded=1;" vertex="1" parent="1"><mxGeometry x="222" y="402" width="110" height="90" as="geometry"/></mxCell><mxCell id="34" value="&lt;p style=&quot;margin:0px;margin-top:4px;text-align:center;&quot;&gt;&lt;b&gt;Credit&lt;/b&gt;&lt;/p&gt;&lt;hr size=&quot;1&quot;&gt;&lt;p style=&quot;margin:0px;margin-left:4px;&quot;&gt;+ field: Type&lt;/p&gt;&lt;hr size=&quot;1&quot;&gt;&lt;p style=&quot;margin:0px;margin-left:4px;&quot;&gt;+ method(): Type&lt;/p&gt;" style="verticalAlign=top;align=left;overflow=fill;fontSize=12;fontFamily=Helvetica;html=1;rounded=1;arcSize=19;" vertex="1" parent="1"><mxGeometry x="484" y="371" width="104" height="90" as="geometry"/></mxCell><mxCell id="36" value="" style="endArrow=none;html=1;rounded=1;entryX=0;entryY=0.228;entryDx=0;entryDy=0;entryPerimeter=0;" edge="1" parent="1" target="13"><mxGeometry width="50" height="50" relative="1" as="geometry"><mxPoint x="110" y="65.5" as="sourcePoint"/><mxPoint x="190" y="65.5" as="targetPoint"/><Array as="points"><mxPoint x="160" y="65.5"/></Array></mxGeometry></mxCell><mxCell id="37" value="1" style="text;html=1;align=center;verticalAlign=middle;resizable=0;points=[];autosize=1;strokeColor=none;fillColor=none;rounded=1;" vertex="1" parent="1"><mxGeometry x="105" y="35" width="30" height="30" as="geometry"/></mxCell><mxCell id="38" value="0..*" style="text;html=1;align=center;verticalAlign=middle;resizable=0;points=[];autosize=1;strokeColor=none;fillColor=none;rounded=1;" vertex="1" parent="1"><mxGeometry x="170" y="65" width="40" height="30" as="geometry"/></mxCell><mxCell id="e87k-n2FnoPu91AXq9xk-38" value="" style="endArrow=diamondThin;endFill=1;endSize=24;html=1;rounded=1;fontColor=#F0F0F0;" edge="1" parent="1"><mxGeometry width="160" relative="1" as="geometry"><mxPoint x="449" y="87" as="sourcePoint"/><mxPoint x="335" y="87" as="targetPoint"/></mxGeometry></mxCell><mxCell id="e87k-n2FnoPu91AXq9xk-39" value="1" style="text;html=1;align=center;verticalAlign=middle;resizable=0;points=[];autosize=1;strokeColor=none;fillColor=none;fontColor=#F0F0F0;" vertex="1" parent="1"><mxGeometry x="332" y="46" width="25" height="26" as="geometry"/></mxCell><mxCell id="e87k-n2FnoPu91AXq9xk-40" value="1...*" style="text;html=1;align=center;verticalAlign=middle;resizable=0;points=[];autosize=1;strokeColor=none;fillColor=none;fontColor=#F0F0F0;" vertex="1" parent="1"><mxGeometry x="415" y="82" width="39" height="26" as="geometry"/></mxCell><mxCell id="e87k-n2FnoPu91AXq9xk-41" value="line item" style="text;html=1;align=center;verticalAlign=middle;resizable=0;points=[];autosize=1;strokeColor=none;fillColor=none;fontColor=#F0F0F0;" vertex="1" parent="1"><mxGeometry x="361" y="57" width="63" height="26" as="geometry"/></mxCell><mxCell id="e87k-n2FnoPu91AXq9xk-43" value="" style="endArrow=none;html=1;rounded=1;fontColor=#F0F0F0;entryX=0.49;entryY=1.135;entryDx=0;entryDy=0;entryPerimeter=0;" edge="1" parent="1" source="26" target="16"><mxGeometry width="50" height="50" relative="1" as="geometry"><mxPoint x="441" y="332" as="sourcePoint"/><mxPoint x="491" y="282" as="targetPoint"/></mxGeometry></mxCell><mxCell id="e87k-n2FnoPu91AXq9xk-44" value="1" style="text;html=1;align=center;verticalAlign=middle;resizable=0;points=[];autosize=1;strokeColor=none;fillColor=none;fontColor=#F0F0F0;" vertex="1" parent="1"><mxGeometry x="274" y="150" width="25" height="26" as="geometry"/></mxCell><mxCell id="e87k-n2FnoPu91AXq9xk-45" value="1..*" style="text;html=1;align=center;verticalAlign=middle;resizable=0;points=[];autosize=1;strokeColor=none;fillColor=none;fontColor=#F0F0F0;" vertex="1" parent="1"><mxGeometry x="213" y="251" width="36" height="26" as="geometry"/></mxCell><mxCell id="e87k-n2FnoPu91AXq9xk-46" value="" style="endArrow=open;endFill=1;endSize=12;html=1;rounded=1;fontColor=#F0F0F0;exitX=1;exitY=0.5;exitDx=0;exitDy=0;" edge="1" parent="1" source="19"><mxGeometry width="160" relative="1" as="geometry"><mxPoint x="461" y="260" as="sourcePoint"/><mxPoint x="705" y="78" as="targetPoint"/></mxGeometry></mxCell><mxCell id="e87k-n2FnoPu91AXq9xk-48" value="0...*" style="text;html=1;align=center;verticalAlign=middle;resizable=0;points=[];autosize=1;strokeColor=none;fillColor=none;fontColor=#F0F0F0;" vertex="1" parent="1"><mxGeometry x="581" y="46" width="39" height="26" as="geometry"/></mxCell><mxCell id="e87k-n2FnoPu91AXq9xk-49" value="&lt;p style=&quot;margin:0px;margin-top:4px;text-align:center;&quot;&gt;&lt;b&gt;Cash&lt;/b&gt;&lt;/p&gt;&lt;hr size=&quot;1&quot;&gt;&lt;p style=&quot;margin:0px;margin-left:4px;&quot;&gt;+ field: Type&lt;/p&gt;&lt;hr size=&quot;1&quot;&gt;&lt;p style=&quot;margin:0px;margin-left:4px;&quot;&gt;+ method(): Type&lt;/p&gt;" style="verticalAlign=top;align=left;overflow=fill;fontSize=12;fontFamily=Helvetica;html=1;rounded=1;fontColor=#F0F0F0;" vertex="1" parent="1"><mxGeometry x="67" y="371" width="109" height="90" as="geometry"/></mxCell><mxCell id="e87k-n2FnoPu91AXq9xk-50" value="" style="endArrow=block;endFill=1;html=1;edgeStyle=orthogonalEdgeStyle;align=left;verticalAlign=top;rounded=1;fontColor=#F0F0F0;exitX=0.5;exitY=0;exitDx=0;exitDy=0;" edge="1" parent="1" source="e87k-n2FnoPu91AXq9xk-49"><mxGeometry x="-1" relative="1" as="geometry"><mxPoint x="386" y="307" as="sourcePoint"/><mxPoint x="200" y="315" as="targetPoint"/><Array as="points"><mxPoint x="122" y="315"/><mxPoint x="200" y="315"/></Array></mxGeometry></mxCell><mxCell id="e87k-n2FnoPu91AXq9xk-52" value="" style="endArrow=block;endFill=1;html=1;edgeStyle=orthogonalEdgeStyle;align=left;verticalAlign=top;rounded=1;fontColor=#F0F0F0;" edge="1" parent="1"><mxGeometry x="-1" relative="1" as="geometry"><mxPoint x="261" y="400" as="sourcePoint"/><mxPoint x="261" y="334" as="targetPoint"/><Array as="points"><mxPoint x="261" y="352"/><mxPoint x="261" y="352"/></Array></mxGeometry></mxCell><mxCell id="e87k-n2FnoPu91AXq9xk-54" value="" style="endArrow=block;endFill=1;html=1;edgeStyle=orthogonalEdgeStyle;align=left;verticalAlign=top;rounded=1;fontColor=#F0F0F0;exitX=0.5;exitY=0;exitDx=0;exitDy=0;entryX=1;entryY=0.5;entryDx=0;entryDy=0;" edge="1" parent="1" target="27"><mxGeometry x="-1" relative="1" as="geometry"><mxPoint x="531" y="369" as="sourcePoint"/><mxPoint x="609.5" y="313" as="targetPoint"/><Array as="points"><mxPoint x="528" y="369"/><mxPoint x="528" y="319"/></Array></mxGeometry></mxCell></root></mxGraphModel></diagram></mxfile>